# xmcd
#
# Track frame offsets: 
#        150
#        11457
#        23187
#        37402
#        52413
#        65109
#        77611
#        95013
#        108990
#        120907
#        135617
#        148238
#        162753
#        179910
#        194760
#        212175
#        229231
#        244041
#        257045
#        272815
#        292147
#        307016
#
# Disc length: 4287 seconds
#
# Revision: 0
# Processed by: cddbd v1.5.2PL0 Copyright (c) Steve Scherf et al.
# Submitted via: ExactAudioCopyFreeDBPlugin 1.0
#
DISCID=6110bd16
DTITLE=Various Artist - Unsung Hero: A Tribute to the Music of Ron Da
DTITLE=vies
DYEAR=2013
DGENRE=Americana
TTITLE0=Gail Davies - One More Night With You
TTITLE1=John Anderson - What Good is a Secret
TTITLE2=Dolly Parton - It's Too Late
TTITLE3=Matraca Berg and Jeff Hanna - Dark Eyed Gal
TTITLE4=Shelby Lynne - It Ain't Easy
TTITLE5=Jim Lauderdale - Have To Come Down
TTITLE6=Delbert McClinton - Say It With Money
TTITLE7=Mandy Barnett - Long Hard Climb
TTITLE8=John Prine - You Stayed Away Too Long
TTITLE9=Crystal Gayle - True Lovers and Friends
TTITLE10=BR5-49 - Hey Honey I'm Home
TTITLE11=Gail Davies and Ron Davies - Steal Across the Border
TTITLE12=Jimmy Hall - Let It Slide
TTITLE13=Suzy Bogguss - Back To the South
TTITLE14=Vince Gill and Kelly Hogan - More Today Than Yesterday
TTITLE15=Kevin Welch - Innocent Eyes
TTITLE16=Jonell Mosser - Saving It Up For You
TTITLE17=Guy Clark - Walk and Don't Walk
TTITLE18=Robbie Fulks - Just the Way It Goes
TTITLE19=Alison Krauss - Good Love After Bad
TTITLE20=Rodney Crowell - The Man He Used To Be
TTITLE21=Bonnie Bramlett - Lay My Body Down
EXTD=
EXTT0=
EXTT1=
EXTT2=
EXTT3=
EXTT4=
EXTT5=
EXTT6=
EXTT7=
EXTT8=
EXTT9=
EXTT10=
EXTT11=
EXTT12=
EXTT13=
EXTT14=
EXTT15=
EXTT16=
EXTT17=
EXTT18=
EXTT19=
EXTT20=
EXTT21=
PLAYORDER=
